<svg width="14" height="13" viewBox="0 0 14 13" fill="none" xmlns="http://www.w3.org/2000/svg">
<path d="M6.39253 1.22962C6.56942 0.685211 7.33962 0.685209 7.51651 1.22962L8.54653 4.3997C8.62564 4.64316 8.85252 4.80801 9.10852 4.80801L12.4417 4.80801C13.0142 4.80801 13.2522 5.54051 12.7891 5.87697L10.0924 7.83618C9.88533 7.98666 9.79867 8.25337 9.87777 8.49684L10.9078 11.6669C11.0847 12.2113 10.4616 12.664 9.99848 12.3276L7.30185 10.3684C7.09475 10.2179 6.8143 10.2179 6.6072 10.3684L3.91057 12.3276C3.44747 12.664 2.82436 12.2113 3.00125 11.6669L4.03127 8.49684C4.11038 8.25337 4.02372 7.98666 3.81661 7.83619L1.11999 5.87697C0.656882 5.54051 0.894884 4.80801 1.46731 4.80801L4.80053 4.80801C5.05652 4.80801 5.28341 4.64317 5.36251 4.3997L6.39253 1.22962Z" fill="white"/>
</svg>
