<svg width="18" height="27" viewBox="0 0 18 27" fill="none" xmlns="http://www.w3.org/2000/svg">
<path d="M1.72881 10.5425C1.52542 10.3391 1.28814 10.2374 1.01695 10.2374C0.745763 10.2374 0.508474 10.3391 0.305085 10.5425C0.101695 10.7459 0 10.9832 0 11.2543V13.2882C0 15.6272 0.779661 17.6611 2.30509 19.356C3.83051 21.0849 5.89831 22.1018 8.13559 22.373V24.4069H4C3.72881 24.4069 3.49153 24.5086 3.28814 24.712C3.08475 24.9154 2.98305 25.1527 2.98305 25.4238C2.98305 25.695 3.08475 25.9323 3.28814 26.1357C3.49153 26.3391 3.72881 26.4408 4 26.4408H13.9661C14.2373 26.4408 14.4746 26.3391 14.678 26.1357C14.8814 25.9323 14.9831 25.695 14.9831 25.4238C14.9831 25.1527 14.8814 24.9154 14.678 24.712C14.5085 24.5086 14.2712 24.4069 14 24.4069H9.86441V22.373C12.1356 22.1357 14.1695 21.0849 15.6949 19.356C17.2203 17.6272 18 15.5933 18 13.2882V11.2543C18 10.9832 17.8983 10.7459 17.6949 10.5425C17.4915 10.3391 17.2542 10.2374 16.9831 10.2374C16.7119 10.2374 16.4746 10.3391 16.2712 10.5425C16.0678 10.7459 15.9661 10.9832 15.9661 11.2543V13.2882C15.9661 15.2543 15.2881 16.9154 13.9322 18.3052C12.5763 19.695 10.9153 20.373 8.98305 20.373C7.05085 20.373 5.42373 19.695 4.0339 18.3052C2.67797 16.9154 2 15.2543 2 13.2882V11.2543C2.0339 10.9832 1.9322 10.7459 1.72881 10.5425Z" fill="black"/>
<path d="M12.5085 16.9153C13.4576 15.8983 13.9322 14.7119 13.9322 13.2881V5.11864C13.9322 3.72881 13.4576 2.50847 12.5085 1.49153C11.5593 0.474576 10.4068 0 9.08476 0C7.72883 0 6.61018 0.508474 5.66103 1.49153C4.71188 2.50847 4.1356 3.66102 4.1356 5.08475V13.2203C4.1356 14.6102 4.71188 15.8983 5.66103 16.9153C6.61018 17.9322 7.76272 18.4068 9.08476 18.4068C10.4068 18.4068 11.5593 17.8983 12.5085 16.9153Z" fill="black"/>
</svg>
